<svg width="199" height="26" viewBox="0 0 199 26" fill="none" xmlns="http://www.w3.org/2000/svg">
<g clip-path="url(#clip0_4178_3)">
<path d="M34.7202 18.5173H35.1475L37.6047 21.7692L40.0618 18.5173H40.4891V24.0094H40.0351V19.24L37.6314 22.3955H37.6047L35.201 19.24V24.0094H34.7202V18.5173Z" fill="#232020"/>
<path d="M46.3382 18.493H46.7655L49.5965 24.0333H49.0891L48.3146 22.4917H44.7357L43.9612 24.0333H43.4805L46.3382 18.493ZM48.1276 22.1063L46.5252 18.9266L44.9227 22.1063H48.1276Z" fill="#232020"/>
<path d="M52.6143 18.5173H53.0683V22.1305L56.9409 18.5173H57.5552L54.8844 20.9502L57.6887 24.0094H57.1012L54.5906 21.2393L53.0683 22.6123V24.0094H52.6143V18.5173Z" fill="#232020"/>
<path d="M60.5732 18.5173H64.8999V18.9027H61.0273V21.0707H64.526V21.432H61.0273V23.6481H64.9533V24.0335H60.5732V18.5173Z" fill="#232020"/>
<path d="M74.1944 18.9027H72.0845V18.5173H76.7851V18.9027H74.6751V24.0094H74.2211V18.9027H74.1944Z" fill="#232020"/>
<path d="M79.8833 18.5173H80.3373V21.0707H84.2367V18.5173H84.6907V24.0094H84.2367V21.432H80.3373V24.0094H79.8833V18.5173Z" fill="#232020"/>
<path d="M88.2158 18.5173H92.5425V18.9027H88.6699V21.0707H92.1686V21.432H88.6699V23.6481H92.5959V24.0335H88.2158V18.5173Z" fill="#232020"/>
<path d="M99.5669 23.07L99.9408 22.8532C100.315 23.4313 100.715 23.7204 101.436 23.7204C102.184 23.7204 102.745 23.2145 102.745 22.251V18.5173H103.199V22.2269C103.199 22.8532 102.986 23.359 102.638 23.6481C102.318 23.9371 101.89 24.0817 101.383 24.0817C100.502 24.1058 99.9408 23.6722 99.5669 23.07Z" fill="#232020"/>
<path d="M106.377 21.2625C106.377 19.769 107.606 18.4201 109.449 18.4201C111.292 18.4201 112.494 19.7449 112.494 21.2625C112.494 22.756 111.265 24.1049 109.422 24.1049C107.606 24.1049 106.377 22.78 106.377 21.2625ZM112.039 21.2625C112.039 19.9136 110.944 18.7814 109.449 18.7814C107.953 18.7814 106.858 19.8895 106.858 21.2625C106.858 22.6114 107.953 23.7436 109.449 23.7436C110.971 23.7436 112.039 22.6355 112.039 21.2625Z" fill="#232020"/>
<path d="M115.698 21.7451V18.5173H116.152V21.697C116.152 22.9977 116.927 23.7444 118.209 23.7444C119.437 23.7444 120.239 23.07 120.239 21.7451V18.5173H120.693V21.6729C120.693 23.2386 119.678 24.0817 118.209 24.0817C116.713 24.1058 115.698 23.2627 115.698 21.7451Z" fill="#232020"/>
<path d="M124.138 18.5173H126.702C127.45 18.5173 128.037 18.7341 128.411 19.0473C128.705 19.3122 128.865 19.6736 128.865 20.0831C128.865 20.9984 128.117 21.5283 127.076 21.6488L129.079 23.9853H128.518L126.568 21.721H124.565V23.9853H124.111V18.5173H124.138ZM126.649 21.3838C127.663 21.3838 128.411 20.9261 128.411 20.1071C128.411 19.3604 127.77 18.9027 126.675 18.9027H124.592V21.3838H126.649Z" fill="#232020"/>
<path d="M132.177 18.5173H132.604L136.798 23.2868V18.5173H137.225V24.0094H136.878L132.578 19.1195V24.0094H132.15V18.5173H132.177Z" fill="#232020"/>
<path d="M140.777 18.5173H145.104V18.9027H141.231V21.0707H144.73V21.432H141.231V23.6481H145.157V24.0335H140.777V18.5173Z" fill="#232020"/>
<path d="M150.339 21.8415L147.721 18.5173H148.282L150.552 21.4561L152.849 18.5173H153.383L150.766 21.8174V24.0094H150.312V21.8415H150.339Z" fill="#232020"/>
<path d="M160.38 21.2625C160.38 19.7209 161.662 18.4201 163.425 18.4201C164.52 18.4201 165.134 18.8055 165.775 19.3114L165.482 19.5763C164.947 19.1187 164.333 18.7573 163.425 18.7573C161.956 18.7573 160.861 19.8413 160.861 21.2384C160.861 22.6355 161.983 23.7195 163.425 23.7195C164.306 23.7195 164.894 23.4063 165.508 22.8764L165.802 23.1414C165.161 23.7195 164.467 24.1049 163.372 24.1049C161.689 24.1049 160.38 22.8523 160.38 21.2625Z" fill="#232020"/>
<path d="M168.366 21.2625C168.366 19.769 169.595 18.4201 171.438 18.4201C173.28 18.4201 174.482 19.7449 174.482 21.2625C174.482 22.756 173.254 24.1049 171.411 24.1049C169.595 24.1049 168.366 22.78 168.366 21.2625ZM174.028 21.2625C174.028 19.9136 172.933 18.7814 171.438 18.7814C169.942 18.7814 168.847 19.8895 168.847 21.2625C168.847 22.6114 169.942 23.7436 171.438 23.7436C172.96 23.7436 174.028 22.6355 174.028 21.2625Z" fill="#232020"/>
<path d="M177.687 21.7451V18.5173H178.141V21.697C178.141 22.9977 178.916 23.7444 180.198 23.7444C181.426 23.7444 182.227 23.07 182.227 21.7451V18.5173H182.681V21.6729C182.681 23.2386 181.666 24.0817 180.198 24.0817C178.729 24.1058 177.687 23.2627 177.687 21.7451Z" fill="#232020"/>
<path d="M186.127 18.5173H186.554L190.747 23.2868V18.5173H191.175V24.0094H190.827L186.527 19.1195V24.0094H186.1V18.5173H186.127Z" fill="#232020"/>
<path d="M196.436 18.9027H194.326V18.5173H199.027V18.9027H196.917V24.0094H196.463V18.9027H196.436Z" fill="#232020"/>
<path d="M45.0298 3.6063C45.0298 3.72674 44.9497 3.79901 44.7894 3.79901H38.7535C38.6467 3.79901 38.5665 3.82309 38.5131 3.87127L37.7386 4.44938C37.6852 4.49756 37.6317 4.56982 37.6317 4.64209V6.66548H44.6559C44.8162 6.66548 44.8963 6.73775 44.8963 6.88228V7.82171C44.8963 7.96624 44.8162 8.0385 44.6559 8.0385H37.6585V11.2181C37.6585 11.3627 37.5783 11.4349 37.3914 11.4349H34.8541C34.6939 11.4349 34.6138 11.3627 34.6138 11.2181V4.08806C34.6138 3.96762 34.6672 3.87127 34.7473 3.79901L36.2964 2.5946C36.4032 2.49825 36.5634 2.45007 36.7237 2.45007H44.7894C44.9497 2.45007 45.0298 2.52234 45.0298 2.66687V3.6063Z" fill="#434349"/>
<path d="M63.0309 3.79865C63.111 3.87091 63.1644 3.96727 63.1644 4.08771V6.15928C63.1644 6.3279 63.0843 6.47242 62.9507 6.59286L61.6153 7.62865L63.3781 10.6878C63.4315 10.7601 63.4582 10.8083 63.4582 10.8805C63.4849 10.9287 63.4849 11.001 63.4849 11.0732V11.2178C63.4849 11.29 63.4582 11.3382 63.4582 11.3864C63.4315 11.4346 63.3513 11.4587 63.2445 11.4587H60.8408C60.734 11.4587 60.6271 11.4105 60.5737 11.3141L58.9713 8.23085H53.2558V11.266C53.2558 11.4105 53.1757 11.4827 52.9887 11.4827H50.4782C50.3179 11.4827 50.2378 11.4105 50.2378 11.266V2.81104C50.2378 2.57016 50.398 2.42563 50.6918 2.42563H61.0011C61.188 2.42563 61.3483 2.4738 61.4818 2.57016L63.0309 3.79865ZM59.2918 3.895C59.2383 3.84682 59.1315 3.82274 59.0247 3.82274H53.4962C53.3092 3.82274 53.2291 3.895 53.2291 4.06362V6.88192H59.0514L60.0129 6.15928C60.093 6.08702 60.1197 6.03884 60.1197 5.96657V4.66582C60.1197 4.59355 60.093 4.52129 60.0129 4.44903L59.2918 3.895Z" fill="#434349"/>
<path d="M79.91 3.60651C79.91 3.72695 79.8299 3.79922 79.643 3.79922H72.4586C72.3517 3.79922 72.2716 3.82331 72.1915 3.89557L71.4437 4.47369C71.3635 4.54595 71.3368 4.61821 71.3368 4.71457V6.18394H79.5094C79.6697 6.18394 79.7765 6.2562 79.7765 6.37664V7.29199C79.7765 7.41243 79.6964 7.48469 79.5094 7.48469H71.3368V8.95407C71.3368 9.05042 71.3635 9.12268 71.4437 9.17086L72.4586 9.94168C72.5387 10.0139 72.6188 10.038 72.7256 10.038H79.643C79.8032 10.038 79.91 10.1103 79.91 10.2548V11.1943C79.91 11.3388 79.8299 11.411 79.643 11.411H71.043C70.8828 11.411 70.7226 11.3629 70.5623 11.2665L68.4524 9.65262C68.3456 9.58036 68.3188 9.484 68.3188 9.36356V4.08828C68.3188 3.96784 68.3723 3.87148 68.4524 3.79922L69.9747 2.59482C70.1083 2.49846 70.2418 2.45029 70.4288 2.45029H79.643C79.8032 2.45029 79.91 2.52255 79.91 2.66708V3.60651Z" fill="#434349"/>
<path d="M96.7629 3.60651C96.7629 3.72695 96.6828 3.79922 96.4958 3.79922H89.3114C89.2046 3.79922 89.1245 3.82331 89.0444 3.89557L88.2965 4.47369C88.2164 4.54595 88.1897 4.61821 88.1897 4.71457V6.18394H96.3623C96.5225 6.18394 96.6294 6.2562 96.6294 6.37664V7.29199C96.6294 7.41243 96.5493 7.48469 96.3623 7.48469H88.1897V8.95407C88.1897 9.05042 88.2164 9.12268 88.2965 9.17086L89.3114 9.94168C89.3916 10.0139 89.4717 10.038 89.5785 10.038H96.4958C96.6561 10.038 96.7629 10.1103 96.7629 10.2548V11.1943C96.7629 11.3388 96.6828 11.411 96.4958 11.411H87.8692C87.709 11.411 87.5487 11.3629 87.3885 11.2665L85.2786 9.65262C85.1717 9.58036 85.145 9.484 85.145 9.36356V4.08828C85.145 3.96784 85.1984 3.87148 85.2786 3.79922L86.8009 2.59482C86.9344 2.49846 87.068 2.45029 87.2549 2.45029H96.4691C96.6294 2.45029 96.7362 2.52255 96.7362 2.66708V3.60651H96.7629Z" fill="#434349"/>
<path d="M118.877 11.2183C118.877 11.3629 118.797 11.4351 118.637 11.4351H116.901C116.741 11.4351 116.66 11.3629 116.66 11.2183V5.09997L111.906 11.2665C111.826 11.3629 111.719 11.411 111.559 11.411H109.396C109.236 11.411 109.129 11.3629 109.049 11.2665L104.295 5.09997V11.2183C104.295 11.3629 104.215 11.4351 104.054 11.4351H102.372C102.211 11.4351 102.131 11.3629 102.131 11.2183V2.76343C102.131 2.54664 102.265 2.45029 102.505 2.45029H105.39C105.55 2.45029 105.657 2.52255 105.764 2.64299L110.624 9.14677L115.512 2.64299C115.619 2.52255 115.726 2.45029 115.886 2.45029H118.503C118.744 2.45029 118.877 2.54664 118.877 2.76343V11.2183Z" fill="#FF5722"/>
<path d="M137.145 3.77456C137.252 3.87091 137.332 3.99135 137.332 4.13588V9.77249C137.332 9.91702 137.278 10.0375 137.145 10.1338L135.596 11.3382C135.489 11.4105 135.382 11.4587 135.222 11.4587H126.515C126.355 11.4587 126.221 11.4105 126.141 11.3382L124.592 10.1338C124.485 10.0375 124.405 9.91702 124.405 9.77249V4.11179C124.405 3.96727 124.459 3.84683 124.592 3.75047L126.141 2.54607C126.248 2.4738 126.355 2.42563 126.515 2.42563H135.222C135.382 2.42563 135.516 2.4738 135.596 2.54607L137.145 3.77456ZM133.486 3.91909C133.406 3.84683 133.299 3.82274 133.192 3.82274H128.545C128.438 3.82274 128.331 3.84683 128.251 3.91909L127.53 4.4972C127.45 4.56947 127.423 4.64173 127.423 4.73808V9.1462C127.423 9.24255 127.45 9.31482 127.53 9.38708L128.251 9.9652C128.331 10.0375 128.438 10.0615 128.545 10.0615H133.192C133.299 10.0615 133.406 10.0375 133.486 9.9652L134.207 9.38708C134.287 9.31482 134.314 9.24255 134.314 9.1462V4.714C134.314 4.61764 134.287 4.54538 134.207 4.47312L133.486 3.91909Z" fill="#FF5722"/>
<path d="M154.105 3.67821C154.105 3.82274 154.025 3.895 153.864 3.895H149.698V11.2419C149.698 11.3864 149.618 11.4587 149.431 11.4587H146.894C146.733 11.4587 146.653 11.3864 146.653 11.2419V3.87091H142.487C142.327 3.87091 142.22 3.79865 142.22 3.65412V2.64242C142.22 2.49789 142.3 2.42563 142.487 2.42563H153.864C154.025 2.42563 154.105 2.49789 154.105 2.64242V3.67821Z" fill="#FF5722"/>
<path d="M162.277 11.2178C162.277 11.3623 162.197 11.4346 162.01 11.4346H159.473C159.312 11.4346 159.206 11.3623 159.206 11.2178V2.64242C159.206 2.49789 159.286 2.42563 159.473 2.42563H162.01C162.17 2.42563 162.277 2.49789 162.277 2.64242V11.2178Z" fill="#FF5722"/>
<path d="M180.679 3.77456C180.786 3.87091 180.866 3.99135 180.866 4.13588V9.77249C180.866 9.91702 180.813 10.0375 180.679 10.1338L179.13 11.3382C179.023 11.4105 178.916 11.4587 178.756 11.4587H170.049C169.889 11.4587 169.756 11.4105 169.675 11.3382L168.126 10.1338C168.02 10.0375 167.939 9.91702 167.939 9.77249V4.11179C167.939 3.96727 167.993 3.84683 168.126 3.75047L169.675 2.54607C169.782 2.4738 169.889 2.42563 170.049 2.42563H178.756C178.916 2.42563 179.05 2.4738 179.13 2.54607L180.679 3.77456ZM177.02 3.91909C176.94 3.84683 176.833 3.82274 176.726 3.82274H172.079C171.972 3.82274 171.866 3.84683 171.785 3.91909L171.064 4.4972C170.984 4.56947 170.957 4.64173 170.957 4.73808V9.1462C170.957 9.24255 170.984 9.31482 171.064 9.38708L171.785 9.9652C171.866 10.0375 171.972 10.0615 172.079 10.0615H176.726C176.833 10.0615 176.94 10.0375 177.02 9.9652L177.741 9.38708C177.821 9.31482 177.848 9.24255 177.848 9.1462V4.714C177.848 4.61764 177.821 4.54538 177.741 4.47312L177.02 3.91909Z" fill="#FF5722"/>
<path d="M198.974 11.0732C198.974 11.3141 198.84 11.4346 198.573 11.4346H196.997C196.704 11.4346 196.437 11.3382 196.223 11.1696L188.611 5.36437V11.2419C188.611 11.3864 188.531 11.4587 188.371 11.4587H186.608C186.448 11.4587 186.368 11.3864 186.368 11.2419V2.81104C186.368 2.57016 186.501 2.44972 186.768 2.44972H188.344C188.638 2.44972 188.905 2.54607 189.119 2.71469L196.65 8.544V2.64242C196.65 2.49789 196.73 2.42563 196.917 2.42563H198.733C198.894 2.42563 198.974 2.49789 198.974 2.64242V11.0732Z" fill="#FF5722"/>
<path d="M25.7466 17.3602C24.4379 19.5522 22.2478 21.142 19.6038 21.8406C18.6423 22.1056 17.6541 22.226 16.6926 22.226C15.2237 22.226 13.8349 21.937 12.5262 21.4311C12.9802 21.5034 13.4343 21.5275 13.915 21.5275C14.8231 21.5275 15.7044 21.407 16.5858 21.1661C18.9895 20.5158 20.9926 19.0705 22.1944 17.0712C23.3963 15.0719 23.6634 12.7835 22.9689 10.5915C21.7938 7.00235 18.0814 4.4972 13.9417 4.4972C13.1939 4.4972 12.4461 4.59355 11.6982 4.76216C12.3392 4.42493 13.0336 4.15996 13.7815 3.96726C14.7429 3.70229 15.7311 3.58185 16.7193 3.58185C21.2596 3.58185 25.3192 6.32789 26.6012 10.2542C27.3757 12.663 27.082 15.1923 25.7466 17.3602Z" fill="#FF5722"/>
<path d="M4.22039 16.2522C2.1906 10.0375 6.14336 3.50958 13.034 1.67889C14.2358 1.36575 15.4911 1.19713 16.7197 1.19713C17.5209 1.19713 18.3221 1.26939 19.0967 1.41392C17.4675 0.81172 15.7315 0.474487 13.9153 0.474487C12.5799 0.474487 11.2713 0.643104 9.96257 0.980337C6.41043 1.94386 3.47257 4.0877 1.70986 7.02644C-0.0528586 9.96519 -0.480184 13.3616 0.588129 16.5653C2.32414 21.8647 7.79924 25.5743 13.9153 25.5743C15.2507 25.5743 16.5594 25.4056 17.8414 25.0684C18.6426 24.8516 19.4171 24.5626 20.165 24.2253C19.0165 24.5144 17.8414 24.6589 16.6662 24.6589C10.9508 24.6589 5.82286 21.1902 4.22039 16.2522Z" fill="#FF5722"/>
<path d="M14.0751 19.1909C17.8365 19.1909 20.8856 16.4408 20.8856 13.0485C20.8856 9.65608 17.8365 6.90601 14.0751 6.90601C10.3138 6.90601 7.26465 9.65608 7.26465 13.0485C7.26465 16.4408 10.3138 19.1909 14.0751 19.1909Z" fill="#FF5722"/>
</g>
<defs>
<clipPath id="clip0_4178_3">
<rect width="199" height="25.0998" fill="white" transform="translate(0 0.474487)"/>
</clipPath>
</defs>
</svg>
